<svg width="519" height="166" viewBox="0 0 519 166" fill="none" xmlns="http://www.w3.org/2000/svg">
<path d="M120.903 11.9136H40.1069C28.2538 13.868 15.7584 22.2966 12.2164 40.9542V127.501C13.3733 137.436 24.3281 154.421 45.8575 156.829L120.328 155.966L120.903 132.101L54.4835 132.964C45.4406 132.71 39.9199 128.071 38.0942 121.463L38.9568 94.4349L99.9133 95.0099L100.201 71.1449H38.6693V47.8549C38.8566 47.3329 39.0347 46.8078 39.2129 46.2828C40.7581 41.7275 42.3034 37.1723 49.8829 34.6285L120.328 34.9161L120.903 11.9136Z" fill="white"/>
<path d="M120.903 11.9136H40.1069C28.2538 13.868 15.7584 22.2966 12.2164 40.9542V127.501C13.3733 137.436 24.3281 154.421 45.8575 156.829L120.328 155.966L120.903 132.101L54.4835 132.964C45.4406 132.71 39.9199 128.071 38.0942 121.463L38.9568 94.4349L99.9133 95.0099L100.201 71.1449H38.6693V47.8549C38.8566 47.3329 39.0347 46.8078 39.2129 46.2828C40.7581 41.7275 42.3034 37.1723 49.8829 34.6285L120.328 34.9161L120.903 11.9136Z" stroke="white"/>
<path d="M5.31567 55.9057L5.89074 36.9287C8.66551 15.5057 27.5452 3.82596 43.2697 3.28761L128.379 3V40.379L54.7709 40.954C49.6063 40.6623 46.8068 42.3975 47.0076 46.7047L46.72 63.0939L107.964 63.669V68.8445" stroke="black" stroke-width="4.15748"/>
<path d="M5.5364 58.4072C6.93722 58.4072 8.0728 57.2716 8.0728 55.8708C8.0728 54.47 6.93722 53.3344 5.5364 53.3344C4.13558 53.3344 3 54.47 3 55.8708C3 57.2716 4.13558 58.4072 5.5364 58.4072Z" fill="black" stroke="black" stroke-width="4.15748"/>
<path d="M4.85071 76.3571L5.66396 130.439C5.95196 143.778 17.2985 161.204 37.3811 162.563L128.466 163.376L128.06 125.966L56.086 125.559C50.7209 126.347 46.6472 123.62 46.3269 119.053V102.381L108.135 101.975V89.7758" stroke="black" stroke-width="4.15748"/>
<path d="M107.61 91.7607C109.011 91.7607 110.146 90.6251 110.146 89.2243C110.146 87.8235 109.011 86.6879 107.61 86.6879C106.209 86.6879 105.073 87.8235 105.073 89.2243C105.073 90.6251 106.209 91.7607 107.61 91.7607Z" fill="black" stroke="black" stroke-width="4.15748"/>
<path d="M475.844 96.4411V28.3777H493.052V96.4411H475.844ZM450.416 71.0135V53.8053H518.479V71.0135H450.416Z" fill="white"/>
<path d="M432.078 47.4605H411.025C410.64 44.7367 409.855 42.3173 408.669 40.2023C407.484 38.0553 405.962 36.2287 404.103 34.7226C402.244 33.2165 400.097 32.0629 397.662 31.2618C395.259 30.4606 392.647 30.0601 389.827 30.0601C384.732 30.0601 380.294 31.3259 376.512 33.8574C372.731 36.3569 369.799 40.01 367.716 44.8168C365.633 49.5915 364.592 55.3916 364.592 62.2172C364.592 69.235 365.633 75.1313 367.716 79.9059C369.831 84.6806 372.779 88.2857 376.56 90.7211C380.342 93.1565 384.716 94.3742 389.683 94.3742C392.471 94.3742 395.05 94.0057 397.422 93.2687C399.825 92.5316 401.956 91.4581 403.815 90.0482C405.673 88.6061 407.211 86.8597 408.429 84.8088C409.679 82.7579 410.544 80.4187 411.025 77.791L432.078 77.8871C431.534 82.4055 430.172 86.7636 427.993 90.9614C425.846 95.1273 422.945 98.8605 419.292 102.161C415.671 105.43 411.345 108.025 406.314 109.948C401.315 111.839 395.659 112.784 389.346 112.784C380.566 112.784 372.715 110.797 365.793 106.824C358.904 102.85 353.456 97.0981 349.45 89.5675C345.477 82.0369 343.49 72.9202 343.49 62.2172C343.49 51.4821 345.509 42.3493 349.547 34.8188C353.584 27.2882 359.064 21.5521 365.986 17.6106C372.907 13.6371 380.694 11.6503 389.346 11.6503C395.05 11.6503 400.338 12.4514 405.209 14.0536C410.111 15.6559 414.454 17.9952 418.235 21.0715C422.016 24.1157 425.092 27.849 427.464 32.2712C429.867 36.6934 431.405 41.7565 432.078 47.4605Z" fill="white"/>
<path d="M307.283 12.9962H328.097V76.9258C328.097 84.1039 326.382 90.3847 322.953 95.7682C319.557 101.152 314.798 105.35 308.677 108.362C302.557 111.342 295.427 112.832 287.287 112.832C279.116 112.832 271.97 111.342 265.849 108.362C259.729 105.35 254.97 101.152 251.573 95.7682C248.177 90.3847 246.478 84.1039 246.478 76.9258V12.9962H267.291V75.1473C267.291 78.8966 268.108 82.2293 269.743 85.1454C271.409 88.0614 273.748 90.3527 276.761 92.019C279.773 93.6853 283.282 94.5185 287.287 94.5185C291.325 94.5185 294.834 93.6853 297.814 92.019C300.826 90.3527 303.15 88.0614 304.784 85.1454C306.45 82.2293 307.283 78.8966 307.283 75.1473V12.9962Z" fill="white"/>
<path d="M182.897 111.438H148V12.9962H183.185C193.087 12.9962 201.611 14.967 208.757 18.9085C215.903 22.818 221.399 28.4419 225.244 35.7802C229.122 43.1184 231.06 51.8987 231.06 62.1211C231.06 72.3754 229.122 81.1878 225.244 88.5581C221.399 95.9285 215.871 101.584 208.661 105.526C201.483 109.467 192.895 111.438 182.897 111.438ZM168.813 93.6052H182.032C188.184 93.6052 193.36 92.5157 197.557 90.3366C201.787 88.1255 204.96 84.7127 207.075 80.0983C209.222 75.4518 210.295 69.4594 210.295 62.1211C210.295 54.8469 209.222 48.9025 207.075 44.2881C204.96 39.6736 201.803 36.2769 197.606 34.0978C193.408 31.9187 188.232 30.8292 182.08 30.8292H168.813V93.6052Z" fill="white"/>
<path d="M502.954 157.358C501.136 157.358 499.516 157.043 498.094 156.412C496.672 155.769 495.547 154.823 494.718 153.574C493.902 152.313 493.494 150.742 493.494 148.862C493.494 147.279 493.784 145.95 494.366 144.874C494.947 143.798 495.738 142.933 496.74 142.277C497.742 141.622 498.879 141.127 500.153 140.793C501.439 140.459 502.787 140.224 504.197 140.088C505.854 139.915 507.19 139.754 508.204 139.606C509.218 139.445 509.954 139.21 510.411 138.901C510.869 138.592 511.098 138.134 511.098 137.528V137.417C511.098 136.242 510.727 135.333 509.985 134.69C509.255 134.047 508.216 133.725 506.868 133.725C505.446 133.725 504.315 134.041 503.474 134.672C502.633 135.29 502.076 136.069 501.804 137.009L494.495 136.415C494.866 134.684 495.596 133.188 496.684 131.926C497.773 130.652 499.176 129.675 500.895 128.995C502.627 128.303 504.63 127.956 506.905 127.956C508.488 127.956 510.003 128.142 511.45 128.513C512.91 128.884 514.202 129.459 515.327 130.238C516.465 131.017 517.362 132.019 518.017 133.243C518.672 134.455 519 135.908 519 137.602V156.82H511.506V152.869H511.283C510.826 153.76 510.214 154.545 509.447 155.225C508.68 155.893 507.759 156.418 506.683 156.802C505.607 157.173 504.364 157.358 502.954 157.358ZM505.217 151.905C506.38 151.905 507.406 151.676 508.297 151.218C509.187 150.748 509.886 150.118 510.393 149.326C510.9 148.535 511.153 147.638 511.153 146.636V143.613C510.906 143.773 510.566 143.922 510.133 144.058C509.713 144.182 509.237 144.299 508.705 144.41C508.173 144.509 507.641 144.602 507.11 144.689C506.578 144.763 506.095 144.831 505.663 144.893C504.735 145.029 503.925 145.245 503.233 145.542C502.54 145.839 502.002 146.241 501.619 146.748C501.235 147.242 501.044 147.861 501.044 148.603C501.044 149.679 501.433 150.501 502.212 151.07C503.004 151.626 504.005 151.905 505.217 151.905Z" fill="white"/>
<path d="M488.499 118.83V156.82H480.597V118.83H488.499Z" fill="white"/>
<path d="M466.374 144.689V128.327H474.276V156.82H466.689V151.645H466.392C465.749 153.314 464.679 154.656 463.183 155.67C461.699 156.684 459.887 157.191 457.748 157.191C455.843 157.191 454.168 156.758 452.721 155.893C451.274 155.027 450.142 153.797 449.326 152.201C448.522 150.606 448.114 148.695 448.102 146.469V128.327H456.004V145.06C456.016 146.741 456.468 148.071 457.358 149.048C458.249 150.025 459.442 150.513 460.938 150.513C461.891 150.513 462.781 150.297 463.61 149.864C464.438 149.419 465.106 148.763 465.613 147.898C466.132 147.032 466.386 145.962 466.374 144.689Z" fill="white"/>
<path d="M415.723 156.82H407.115L420.23 118.83H430.581L443.678 156.82H435.07L425.554 127.511H425.257L415.723 156.82ZM415.185 141.888H435.516V148.157H415.185V141.888Z" fill="white"/>
<path d="M378.701 157.377C375.77 157.377 373.247 156.783 371.133 155.596C369.03 154.396 367.41 152.702 366.273 150.513C365.135 148.312 364.566 145.709 364.566 142.704C364.566 139.773 365.135 137.201 366.273 134.987C367.41 132.773 369.012 131.048 371.077 129.811C373.155 128.575 375.591 127.956 378.386 127.956C380.266 127.956 382.015 128.259 383.636 128.865C385.268 129.459 386.69 130.356 387.902 131.555C389.126 132.755 390.079 134.263 390.759 136.081C391.439 137.887 391.779 140.002 391.779 142.425V144.596H367.72V139.699H384.34C384.34 138.561 384.093 137.553 383.598 136.675C383.104 135.797 382.417 135.111 381.539 134.616C380.674 134.109 379.666 133.855 378.516 133.855C377.316 133.855 376.253 134.134 375.325 134.69C374.41 135.234 373.693 135.97 373.173 136.898C372.654 137.813 372.388 138.833 372.376 139.958V144.614C372.376 146.024 372.635 147.242 373.155 148.269C373.686 149.295 374.435 150.087 375.399 150.643C376.364 151.2 377.508 151.478 378.831 151.478C379.709 151.478 380.513 151.354 381.243 151.107C381.972 150.86 382.597 150.489 383.116 149.994C383.635 149.499 384.031 148.893 384.303 148.176L391.612 148.658C391.241 150.414 390.48 151.948 389.33 153.259C388.193 154.557 386.721 155.571 384.915 156.301C383.122 157.018 381.051 157.377 378.701 157.377Z" fill="white"/>
<path d="M343.006 157.284C340.842 157.284 338.882 156.728 337.126 155.615C335.382 154.489 333.997 152.838 332.971 150.662C331.957 148.473 331.45 145.789 331.45 142.611C331.45 139.346 331.975 136.632 333.026 134.468C334.078 132.291 335.475 130.665 337.219 129.589C338.975 128.501 340.898 127.956 342.988 127.956C344.583 127.956 345.912 128.229 346.976 128.773C348.052 129.304 348.918 129.972 349.573 130.776C350.241 131.568 350.748 132.347 351.094 133.113H351.335V118.83H359.219V156.82H351.428V152.257H351.094C350.723 153.049 350.198 153.834 349.517 154.613C348.85 155.38 347.978 156.017 346.902 156.524C345.838 157.031 344.54 157.284 343.006 157.284ZM345.511 150.996C346.784 150.996 347.86 150.649 348.738 149.957C349.629 149.252 350.309 148.269 350.779 147.007C351.261 145.746 351.502 144.268 351.502 142.574C351.502 140.88 351.267 139.408 350.797 138.159C350.327 136.91 349.647 135.945 348.757 135.265C347.866 134.585 346.784 134.245 345.511 134.245C344.212 134.245 343.118 134.597 342.227 135.302C341.337 136.007 340.663 136.984 340.205 138.233C339.748 139.482 339.519 140.929 339.519 142.574C339.519 144.231 339.748 145.697 340.205 146.97C340.675 148.232 341.349 149.221 342.227 149.938C343.118 150.643 344.212 150.996 345.511 150.996Z" fill="white"/>
<path d="M314.792 136.452L307.557 136.898C307.433 136.279 307.167 135.723 306.759 135.228C306.351 134.721 305.813 134.319 305.145 134.022C304.49 133.713 303.705 133.559 302.79 133.559C301.565 133.559 300.533 133.818 299.692 134.338C298.851 134.845 298.43 135.525 298.43 136.378C298.43 137.058 298.702 137.633 299.247 138.103C299.791 138.573 300.724 138.95 302.048 139.235L307.205 140.274C309.975 140.843 312.04 141.758 313.4 143.019C314.761 144.28 315.441 145.938 315.441 147.99C315.441 149.858 314.89 151.496 313.79 152.906C312.702 154.316 311.205 155.417 309.301 156.208C307.409 156.987 305.226 157.377 302.753 157.377C298.981 157.377 295.976 156.592 293.737 155.021C291.511 153.438 290.206 151.286 289.823 148.566L297.596 148.157C297.831 149.308 298.399 150.186 299.302 150.792C300.205 151.385 301.361 151.682 302.771 151.682C304.156 151.682 305.269 151.416 306.11 150.884C306.963 150.34 307.396 149.641 307.409 148.788C307.396 148.071 307.093 147.483 306.5 147.026C305.906 146.556 304.991 146.197 303.754 145.95L298.82 144.967C296.037 144.41 293.966 143.446 292.606 142.073C291.258 140.7 290.584 138.95 290.584 136.823C290.584 134.993 291.078 133.416 292.068 132.093C293.069 130.77 294.473 129.75 296.279 129.032C298.096 128.315 300.224 127.956 302.66 127.956C306.258 127.956 309.09 128.717 311.156 130.238C313.233 131.759 314.445 133.831 314.792 136.452Z" fill="white"/>
<path d="M271.923 157.377C269.041 157.377 266.549 156.765 264.447 155.54C262.357 154.304 260.743 152.585 259.605 150.383C258.468 148.17 257.899 145.604 257.899 142.685C257.899 139.742 258.468 137.17 259.605 134.968C260.743 132.755 262.357 131.036 264.447 129.811C266.549 128.575 269.041 127.956 271.923 127.956C274.804 127.956 277.29 128.575 279.38 129.811C281.482 131.036 283.102 132.755 284.24 134.968C285.378 137.17 285.946 139.742 285.946 142.685C285.946 145.604 285.378 148.17 284.24 150.383C283.102 152.585 281.482 154.304 279.38 155.54C277.29 156.765 274.804 157.377 271.923 157.377ZM271.96 151.255C273.271 151.255 274.365 150.884 275.243 150.142C276.121 149.388 276.783 148.361 277.228 147.063C277.685 145.764 277.914 144.287 277.914 142.63C277.914 140.972 277.685 139.495 277.228 138.196C276.783 136.898 276.121 135.871 275.243 135.117C274.365 134.362 273.271 133.985 271.96 133.985C270.636 133.985 269.523 134.362 268.621 135.117C267.73 135.871 267.056 136.898 266.599 138.196C266.153 139.495 265.931 140.972 265.931 142.63C265.931 144.287 266.153 145.764 266.599 147.063C267.056 148.361 267.73 149.388 268.621 150.142C269.523 150.884 270.636 151.255 271.96 151.255Z" fill="white"/>
<path d="M234.456 140.348V156.82H226.554V128.327H234.085V133.354H234.419C235.05 131.697 236.107 130.386 237.591 129.422C239.075 128.445 240.874 127.956 242.989 127.956C244.968 127.956 246.693 128.389 248.165 129.255C249.636 130.121 250.78 131.357 251.596 132.965C252.413 134.56 252.821 136.465 252.821 138.678V156.82H244.918V140.088C244.931 138.344 244.485 136.984 243.583 136.007C242.68 135.018 241.437 134.523 239.854 134.523C238.791 134.523 237.851 134.752 237.035 135.209C236.231 135.667 235.6 136.335 235.142 137.213C234.697 138.079 234.468 139.124 234.456 140.348Z" fill="white"/>
<path d="M204.377 157.358C202.559 157.358 200.939 157.043 199.517 156.412C198.095 155.769 196.969 154.823 196.141 153.574C195.325 152.313 194.917 150.742 194.917 148.862C194.917 147.279 195.207 145.95 195.788 144.874C196.37 143.798 197.161 142.933 198.163 142.277C199.164 141.622 200.302 141.127 201.576 140.793C202.862 140.459 204.21 140.224 205.62 140.088C207.277 139.915 208.613 139.754 209.627 139.606C210.641 139.445 211.377 139.21 211.834 138.901C212.292 138.592 212.521 138.134 212.521 137.528V137.417C212.521 136.242 212.15 135.333 211.408 134.69C210.678 134.047 209.639 133.725 208.291 133.725C206.869 133.725 205.737 134.041 204.896 134.672C204.056 135.29 203.499 136.069 203.227 137.009L195.918 136.415C196.289 134.684 197.019 133.188 198.107 131.926C199.195 130.652 200.599 129.675 202.318 128.995C204.049 128.303 206.053 127.956 208.328 127.956C209.911 127.956 211.426 128.142 212.873 128.513C214.332 128.884 215.625 129.459 216.75 130.238C217.888 131.017 218.784 132.019 219.44 133.243C220.095 134.455 220.423 135.908 220.423 137.602V156.82H212.929V152.869H212.706C212.248 153.76 211.636 154.545 210.87 155.225C210.103 155.893 209.182 156.418 208.106 156.802C207.03 157.173 205.787 157.358 204.377 157.358ZM206.64 151.905C207.803 151.905 208.829 151.676 209.719 151.218C210.61 150.748 211.309 150.118 211.816 149.326C212.323 148.535 212.576 147.638 212.576 146.636V143.613C212.329 143.773 211.989 143.922 211.556 144.058C211.135 144.182 210.659 144.299 210.128 144.41C209.596 144.509 209.064 144.602 208.532 144.689C208 144.763 207.518 144.831 207.085 144.893C206.158 145.029 205.348 145.245 204.655 145.542C203.963 145.839 203.425 146.241 203.041 146.748C202.658 147.242 202.466 147.861 202.466 148.603C202.466 149.679 202.856 150.501 203.635 151.07C204.427 151.626 205.428 151.905 206.64 151.905Z" fill="white"/>
<path d="M189.922 118.83V156.82H182.02V118.83H189.922Z" fill="white"/>
<path d="M148.347 156.82V118.83H163.335C166.216 118.83 168.671 119.38 170.699 120.481C172.728 121.569 174.273 123.084 175.337 125.026C176.413 126.955 176.951 129.181 176.951 131.704C176.951 134.226 176.407 136.452 175.318 138.382C174.23 140.311 172.653 141.813 170.588 142.889C168.535 143.965 166.05 144.503 163.131 144.503H153.578V138.066H161.832C163.378 138.066 164.652 137.8 165.654 137.269C166.668 136.724 167.422 135.976 167.917 135.024C168.424 134.059 168.677 132.953 168.677 131.704C168.677 130.442 168.424 129.342 167.917 128.402C167.422 127.449 166.668 126.714 165.654 126.194C164.64 125.662 163.354 125.397 161.795 125.397H156.379V156.82H148.347Z" fill="white"/>
</svg>
